# xmcd
#
# Track frame offsets: 
#        150
#        21040
#        37988
#        61990
#        79116
#        101275
#        124102
#        142732
#        167747
#        183637
#        201337
#        220233
#        237227
#        255411
#        271492
#        289272
#        304234
#        320444
#        340870
#        355720
#
# Disc length: 4993 seconds
#
# Revision: 0
# Processed by: cddbd v1.5.1PL2 Copyright (c) Steve Scherf et al.
# Submitted via: ExactAudioCopy v0.95b4
#
DISCID=21137f14
DTITLE=Faith Hill - Cry
DYEAR=2003
DGENRE=Country
TTITLE0=Free
TTITLE1=Cry
TTITLE2=One
TTITLE3=If You're Gonna Fly Away
TTITLE4=If This Is The End
TTITLE5=This Is Me
TTITLE6=I Think I Will
TTITLE7=What's In It For Me
TTITLE8=I Got My Baby
TTITLE9=Love Is A Sweet Thing
TTITLE10=Let's Make Love
TTITLE11=It Will Be Me
TTITLE12=If I'mNot In Love
TTITLE13=Bringing Out The Elvis
TTITLE14=Soon
TTITLE15=But I Do Love You (From The Motion Picture 'Coyote Ugly'
TTITLE16=If My Heart Had Wings
TTITLE17=If I should Fall Behind
TTITLE18=Over The Rainbow
TTITLE19=Breathe
EXTD=
EXTT0=
EXTT1=
EXTT2=
EXTT3=
EXTT4=
EXTT5=
EXTT6=
EXTT7=
EXTT8=
EXTT9=
EXTT10=
EXTT11=
EXTT12=
EXTT13=
EXTT14=
EXTT15=
EXTT16=
EXTT17=
EXTT18=
EXTT19=
PLAYORDER=
